Coordinates
version=1
nRows=12
nColumns=24
inDegrees=yes

Units are S.I. units (second, meters, Newtons, ...)
Angles are in degrees.

endheader
time	pelvis_tilt	pelvis_list	pelvis_rotation	pelvis_tx	pelvis_ty	pelvis_tz	hip_flexion_r	hip_adduction_r	hip_rotation_r	knee_angle_r	ankle_angle_r	subtalar_angle_r	mtp_angle_r	hip_flexion_l	hip_adduction_l	hip_rotation_l	knee_angle_l	ankle_angle_l	subtalar_angle_l	mtp_angle_l	lumbar_extension	lumbar_bending	lumbar_rotation
      0.44100000	     -0.85381930	      0.96320187	     -0.98712731	     -0.76415113	      1.05800007	      0.29285880	     21.70750256	      1.84115395	     -8.97307012	     -2.48069847	      4.85349752	     -1.61717762	     -0.06247513	     -9.38181730	      4.85216498	     -0.91803976	     -8.62095265	     14.34983323	      0.94009464	      0.12258343	      0.23717520	      2.12106361	     -1.48767800
      0.44516667	     -0.88287930	      0.91562581	     -1.07706817	     -0.75835362	      1.05737983	      0.29306662	     21.71265418	      1.98527120	     -8.64453142	     -2.65923327	      4.84402498	     -1.34452688	     -0.07303092	     -9.44011656	      4.80903133	     -1.04658808	     -9.14673653	     14.49810218	      0.84668280	      0.06855435	      0.24615321	      2.15087972	     -1.62138880
      0.44933333	     -0.85251772	      0.88081985	     -1.08006408	     -0.75263928	      1.05688764	      0.29310313	     21.67214402	      2.07336729	     -8.48056330	     -2.94377636	      4.85934459	     -1.26666277	     -0.07470686	     -9.52451169	      4.76887182	     -1.05139543	     -9.73580236	     14.52159759	      0.83818383	      0.05362930	      0.31495731	      2.20074273	     -1.65031980
      0.45350000	     -0.88777933	      0.81634925	     -1.23594052	     -0.74670261	      1.05626513	      0.29343438	     21.68829018	      2.25957763	     -7.98124377	     -3.27847545	      5.04082719	     -1.00521199	     -0.07929941	     -9.54297415	      4.70450079	     -1.32637464	    -10.35412116	     14.81068125	      0.93888089	     -0.00180789	      0.28865527	      2.30814924	     -1.77960541
      0.45766667	     -0.86960228	      0.78037509	     -1.32188226	     -0.74090299	      1.05575510	      0.29371657	     21.66492843	      2.39067202	     -7.56251512	     -3.69280686	      5.16568985	     -0.87668083	     -0.08637856	     -9.56230003	      4.65126956	     -1.57942275	    -11.06708532	     14.98411419	      1.21775738	     -0.06738031	      0.30935631	      2.30910211	     -1.84578100
      0.46183333	     -0.80558404	      0.72700588	     -1.30973073	     -0.73504470	      1.05539260	      0.29371135	     21.58601818	      2.48239142	     -7.37152765	     -4.14081176	      5.13691509	     -0.84262544	     -0.08679051	     -9.62083796	      4.57744226	     -1.57173569	    -11.79274032	     14.97080260	      1.25828889	     -0.07871197	      0.38562231	      2.37882141	     -1.85486147
      0.46600000	     -0.80330650	      0.69219769	     -1.56719116	     -0.72914296	      1.05484610	      0.29440318	     21.58034648	      2.69302820	     -6.59701100	     -4.63790400	      5.21390294	     -0.88936448	     -0.09324951	     -9.58196398	      4.51813908	     -2.15760181	    -12.60340509	     15.27228807	      1.94763693	     -0.17019331	      0.40930500	      2.38832007	     -1.90965465
      0.47016667	     -0.74168949	      0.62240669	     -1.49042215	     -0.72320885	      1.05456782	      0.29436210	     21.48007159	      2.78073913	     -6.39238344	     -5.11734083	      5.15726217	     -0.87194808	     -0.09293457	     -9.57270657	      4.39711134	     -2.15065799	    -13.47199489	     15.22225966	      1.97347596	     -0.17909027	      0.43644801	      2.47887853	     -1.91201696
      0.47433333	     -0.73010952	      0.58532903	     -1.71528469	     -0.71733971	      1.05411127	      0.29510078	     21.45812763	      2.98800037	     -5.61285937	     -5.65071955	      5.01635669	     -1.18706374	     -0.09504057	     -9.46924526	      4.30276905	     -2.76618103	    -14.41809388	     15.32679682	      2.79644428	     -0.24777294	      0.36049834	      2.53304682	     -1.92662197
      0.47850000	     -0.64701806	      0.50411754	     -1.62524422	     -0.71132810	      1.05394768	      0.29505548	     21.31520446	      3.07944073	     -5.40405366	     -6.14312150	      4.95268061	     -1.17371662	     -0.09373095	     -9.42707291	      4.15064970	     -2.76722844	    -15.40227917	     15.26210526	      2.80929320	     -0.25309033	      0.40316729	      2.61720491	     -1.92246887
      0.48266667	     -0.65009886	      0.42795706	     -1.78009614	     -0.70531184	      1.05359616	      0.29593729	     21.25031239	      3.32724639	     -4.55890368	     -6.60760197	      4.67343722	     -1.77814864	     -0.08838018	     -9.24280634	      3.95247238	     -3.41518033	    -16.49058858	     15.24146340	      3.80613381	     -0.29316699	      0.38141883	      2.60572637	     -1.87511139
      0.48683333	     -0.54271698	      0.37263143	     -1.72219560	     -0.69938546	      1.05351691	      0.29589720	     21.09901307	      3.39089013	     -4.37700066	     -7.15387142	      4.59499794	     -1.76828893	     -0.08644089	     -9.15543286	      3.82401232	     -3.44915940	    -17.59461990	     15.14580197	      3.81298137	     -0.29472106	      0.39792113	      2.73620324	     -1.88164162
